<svg xmlns="http://www.w3.org/2000/svg" viewBox="0.9919967651367188 0.943000078201294 779.9880981445312 252.0850067138672"><g xmlns="http://www.w3.org/2000/svg" fill="#000000">
    <path d="M742.359 62.404v59.756c0 36.067-10.734 52.24-26.844 52.24-13.432 0-20.233-8.182-20.233-31.535V62.404H656.73v86.238c0 31.298 9.721 51.079 40.541 51.079 22.65 0 40.187-14.863 49.056-48.245l2.779 1.023v40.656c0 25.243-9.974 41.088-33.019 41.088-19.687 0-43.071-12.111-54.834-20.966v37.548c9.803 1.085 21.95 2.203 31.749 2.203 58.05 0 87.978-24.766 87.978-95.758V62.404zM122.986 88.249c0-19.966-23.127-28.571-52.65-28.571-17.958 0-38.264 3.324-57.122 9.272v39.043c27.791-20.241 58.668-28.906 78.557-28.906 12.506 0 20.992 3.49 20.992 9.741 0 25.759-111.771 21.677-111.771 77.336 0 21.334 14.67 33.557 35.309 33.557 31.218 0 54.831-30.338 72.496-67.319l3.579 1.286c-9.304 22.599-28.557 47.378-32.307 63.307h40.191v-82.409h-9.283c-13.474 29.278-33.218 56.257-53.719 56.257-9.359 0-15.313-5.678-15.313-12.879 0-30.817 81.041-36.987 81.041-69.715M515.454 62.404h38.555v134.591h-38.555zM453.093 59.678c-22.684 0-40.24 14.905-49.096 48.391l-3.611-1.329c3.054-12.215 8.356-26.7 9.205-44.336h-40.19l-.046 134.591h38.65v-59.756c0-36.067 10.734-52.241 26.844-52.241 13.432 0 20.233 8.182 20.233 31.536v80.461h38.552v-86.238c0-31.298-9.721-51.079-40.541-51.079M276.741 62.404c-15.539 0-26.483-9.426-26.483-19.475 0-9.837 10.532-16.617 28.337-16.617 12.795 0 28.924 3.567 46.25 12.317V3.066C311.223 1.543 299.323.943 288.968.943c-43.842 0-62.191 15.676-62.067 34.128.076 11.312 4.715 19.726 20.05 25.169v2.164h-51.474c-17.421 0-26.661-10.861-26.661-19.121 0-10.359 9.168-16.971 22.38-16.971 9.218 0 16.827 2.849 26.289 7.93V3.066c-49.52-8.251-72.177 9.591-72.026 32.005.076 11.312 4.715 19.726 20.05 25.169v2.164h-35.142v11.097h21.369l.049 123.493h38.559l-.057-123.493h42.891l.049 123.493h38.559l-.056-123.493h36.044l.041 123.493h38.559l-.051-134.591h-69.582zM537.417 14.953c-12.75 0-24.156 7.5-24.156 19.312 0 9.375 7.5 15.781 18.781 15.781 12.719 0 23.969-7.531 23.969-19.406-.001-9.374-7.376-15.687-18.594-15.687M623.04 24.282l-38.52 11.055v27.067h-18.036v11.097h18.036v123.494h38.52V73.501h23.917V62.404H623.04z"></path>
  </g></svg>